<svg width="1600" height="564" viewBox="0 0 1600 564" fill="none" xmlns="http://www.w3.org/2000/svg">
  <defs>
    <linearGradient id="logoGradient" x1="50" y1="50" x2="450" y2="450" gradientUnits="userSpaceOnUse">
      <stop offset="0" stop-color="#C62828"/>
      <stop offset="1" stop-color="#FB8C00"/>
    </linearGradient>
    <linearGradient id="goldGradient" x1="245" y1="170" x2="405" y2="330" gradientUnits="userSpaceOnUse">
      <stop offset="0%" stop-color="#BF953F" />
      <stop offset="25%" stop-color="#FCF6BA" />
      <stop offset="50%" stop-color="#B38728" />
      <stop offset="75%" stop-color="#FBF5B7" />
      <stop offset="100%" stop-color="#AA771C" />
    </linearGradient>
  </defs>
  <g transform="translate(0, 32)">
    <path d="M120 50 H 300 C 450 50, 450 450, 300 450 H 120 Q 180 250, 120 50 Z" fill="url(#logoGradient)"/>
    <path d="M 325 170 L 335 227 L 367 208 L 348 240 L 405 250 L 348 260 L 367 292 L 335 273 L 325 330 L 315 273 L 283 292 L 302 260 L 245 250 L 302 240 L 283 208 L 315 227 Z" fill="url(#goldGradient)"/>
  </g>
  <path fill="#bbb" d="M669.09 284.996c-18.67 19.717-41.858 27.645-68.061 28.23-12.128.27-24.257.672-36.385.644-9.686-.023-19.37-.812-29.057-.85-4.408-.018-5.263-2.055-5.254-5.821.047-19.493-.048-38.986-.087-58.478-.087-43.134-.166-86.268-.258-129.401-.011-5.157.045-10.32-.177-15.468-.137-3.183.931-4.546 4.242-4.492 25.137.406 50.296.242 75.408 1.256 13.125.53 25.274 5.615 36.948 11.803 18.823 9.977 32.01 25.302 40.662 44.152 9.173 19.985 11.16 41.481 9.143 63.34-13.588 14.715-4.826 29.001-11.312 42.161-4.009 8.135-10.302 15.145-15.811 22.924m-26.752-23.66s.045-.057.736-.05c1.636-2.434 3.27-4.868 5.11-7.643 0 0 .198-.346.8-.36.394-.993.788-1.986 1.418-3.383 0 0 .216-.416.812-.45 1.339-3.069 2.678-6.138 4.186-9.645 0 0 .144-.445.838-.66.389-.723.912-1.404 1.146-2.174 6.97-22.93 6.852-45.796-2.754-67.836-8.171-18.747-22.406-31.834-43.016-34.945-13.863-2.091-28.17-1.26-42.28-1.67-2.328-.068-3.974.793-3.193 4.544.062 13.661.124 27.322-.19 41.375.127.845.255 1.69.378 3.44.005 2.719.01 5.438-.358 8.444.128.553.255 1.107.385 2.599.017 14.37.035 28.74-.356 43.626.135 1.478.27 2.956.392 5.372 0 6.039 0 12.078-.42 18.818.171 5.544.343 11.089.973 17.524 1.183.437 2.364 1.247 3.549 1.253 11.753.06 23.507-.014 35.269-.09 0 0 .046.014.431.09 0 0 .393-.005.734.371a25 25 0 0 1 3.287-1.093c.979-.208 1.958-.415 3.356-.366.4.016.633-.173 1.44-.831 7.418-3.788 14.836-7.576 22.939-11.324 1.443-1.63 2.887-3.26 4.388-4.935"/>
  <path fill="#bababa" d="m1252.602 259 .028 40.999c0 .333-.005.667-.002 1 .119 12.262.119 12.259-12.486 12.127-5.5-.057-11.012-.346-16.495-.07-4.277.216-5.676-1.662-5.593-5.563.092-4.371.02-8.746.02-13.12l-1.76-.524c-1.19.953-2.568 1.745-3.543 2.883-23.48 27.411-68.755 24.118-91.344-1.833-15.184-17.445-21.105-37.757-21.67-60.164-.435-17.248 2.973-33.782 11.086-49.066 10.333-19.465 26.225-32.777 47.941-36.64 19.731-3.51 38.023 1.254 52.197 16.803 1.31 1.436 2.209 3.248 3.298 4.886l2.52-1.109c0-3.241.42-6.55-.085-9.71-1.147-7.175.175-9.006 7.351-9.02 7.632-.017 15.268.097 22.894-.13 4.25-.125 5.84 1.28 5.816 5.756-.186 33.997-.144 67.997-.173 102.495m-46 9.046c13.588-18.634 14.807-38.971 6.856-59.796-5.568-14.582-16.077-24.504-32.546-25.862-16.35-1.348-28.824 5.49-37.356 19.306-10.166 16.46-10.621 34.158-4.782 51.963 4.939 15.06 15.082 25.52 31.25 28.344 14.421 2.518 26.551-2.286 36.578-13.955"/>
  <path fill="#bdbdbc" d="M714.856 238.55c-.812-22.114 2.988-42.629 15.557-60.782 7.619-11.003 17.442-19.23 29.897-24.798 7.989-3.572 16.414-5.566 24.497-5.315 15.309.475 29.753 5.047 40.312 17.442 1.791 2.102 3.283 4.46 4.913 6.7l2.43-1.36c0-4.846.343-9.725-.113-14.528-.34-3.588.79-5.008 4.21-5.01 8.664-.008 17.328.053 25.989-.095 3.66-.062 4.91 1.349 4.903 5.041-.087 50.657-.07 101.314-.013 151.971.005 4.168-.98 5.807-5.825 5.373-7.431-.666-14.978-.258-22.465.009-4.186.148-6.128-1.1-5.98-5.615.147-4.564-.384-9.15-.686-15.06-2.303 1.87-3.807 2.769-4.9 4.025-24.992 28.73-71.93 24.636-95.123-6.337-11.439-15.276-16.224-32.59-17.603-51.662m58.933 41.273c19.388 8.443 39.197 3.34 52.227-15.313 12.932-18.514 13.435-55.05-8.679-74.784-14.095-12.579-38.55-12.575-51.936.71-11.258 11.172-16.76 24.75-16.808 40.41-.061 20.25 5.523 37.883 25.196 48.977"/>
  <path fill="#bebebe" d="M1488.797 163.191c.861.86 1.723 1.719 2.78 3.153 2.405 3.173 4.615 5.772 6.825 8.371l1.399-.897c0-5.63.17-11.268-.06-16.889-.15-3.697 1.217-5.073 4.897-4.982 6.992.173 13.99.042 20.987.046 6.634.004 6.653.027 6.657 6.691l.063 118.932c.004 9.828-.042 19.656.024 29.483.021 3.216-.758 4.805-4.587 4.592-7.307-.406-14.656-.372-21.976-.15-4.26.13-6.17-1.276-5.953-5.686.196-3.985.014-7.992-.106-11.987-.036-1.182-.427-2.353-.927-4.935-2.403 2.618-3.992 4.253-5.476 5.98-21.743 25.284-58.514 23.58-79.567 8.613-15.49-11.012-25.45-26.153-29.904-44.701-6.482-26.986-4.307-52.974 10.188-77.113 3.976-6.62 9.322-12.418 14.04-18.593 0 0-.091-.11.319-.038 10.983-6.668 21.805-12.79 34.69-13.864.398-.033.753-.577 1.128-.883 2.886-.002 5.771-.003 9.307.288 7.44 2.203 14.29 3.93 20.994 6.104 3.232 1.048 6.192 2.936 9.275 4.444 0 0 .11-.1.124.291 1.629 1.504 3.244 2.617 4.859 3.73m-72.883 54.909c-.314 4.3-.629 8.6-1.157 13.683.072 1.073.144 2.145-.326 3.792 1.01 6.198 1.119 12.72 3.202 18.532 5.58 15.572 15.787 26.748 33.112 28.855 18.227 2.216 31.962-5.363 41.822-20.624 7.92-12.258 8.62-25.915 6.837-39.578-3.454-26.475-22.109-45.651-49.632-41.607-14.997 2.204-32.182 19.498-33.277 34.434-.01.134.166.28.132.974-.043.376-.087.751-.713 1.539"/>
  <path fill="#bababa" d="M978.846 301.299c.006 15.175.593 11.788-11.705 12.34-7.952.357-16.064.127-23.927-1.036-23.306-3.448-33.593-16.57-35.817-38.854-1.368-13.698-.988-27.586-1.08-41.39-.092-13.99.071-27.986.398-41.973.106-4.532-1.34-6.431-6.006-6.088-4.14.304-8.322.024-12.484.074-2.91.035-4.241-1.272-4.252-4.223-.03-8.497-.085-16.997-.302-25.49-.077-3.016 1.42-3.766 3.988-3.687 4.496.14 9 .132 13.489.382 3.748.209 5.365-.967 5.228-5.104-.374-11.31-.253-22.634-.486-33.949-.067-3.303.902-4.945 4.489-4.895 8.997.125 18 .134 26.996-.017 3.313-.055 4.338 1.257 4.3 4.437-.133 11.165.034 22.333-.13 33.496-.06 4.114 1.067 5.962 5.644 5.749 8.472-.396 16.971-.232 25.46-.222 5.912.007 6.499 1.396 5.899 7.272-.691 6.77-.588 13.652-.404 20.474.126 4.613-1.711 6.312-6.185 6.16-8.324-.283-16.662-.176-24.983-.513-4.116-.167-5.642 1.296-5.533 5.46.545 20.75.912 41.504 1.308 62.257.045 2.323.123 4.686-.221 6.97-2.088 13.86 3.755 21.06 17.867 21.678 4.492.197 8.998.137 13.497.114 3.49-.018 5.222 1.414 5.083 5.118-.188 4.993-.1 9.995-.13 15.46"/>
  <path fill="#b9b9b9" d="M1027.286 301.68c-9.767-9.246-12.549-20.97-13.094-33.353-.495-11.206-.386-22.441-.42-33.664-.045-14.584.04-29.169.05-43.753.003-6.354-.327-6.65-6.9-6.622-3.666.016-7.332.018-10.997.06-3.138.036-4.446-1.46-4.46-4.61-.04-8.152-.148-16.309-.463-24.455-.12-3.09 1.146-4.29 4.007-4.254 4.165.054 8.348-.088 12.489.262 4.926.416 6.407-1.797 6.306-6.408-.232-10.659-.001-21.328-.281-31.985-.112-4.256 1.59-5.568 5.57-5.493 8.163.155 16.335.222 24.492-.04 3.93-.126 5.406 1.277 5.373 5.122-.09 10.823.256 21.657-.104 32.468-.166 5 1.582 6.34 6.29 6.128 7.806-.354 15.636-.248 23.455-.18 5.702.05 6.976 1.59 6.777 7.265-.243 6.942-.727 13.9-.465 20.827.19 4.977-1.717 6.142-6.3 5.877-8.143-.472-16.323-.295-24.476-.651-4.034-.176-5.706 1.144-5.65 5.375.32 24.157.331 48.32.707 72.476.2 12.872 5.899 18.304 18.889 18.715 4.162.132 8.338.202 12.494.017 3.661-.162 5.281 1.53 5.299 4.976.038 7.659.197 15.326-.159 22.968-.073 1.578-2.11 4.338-3.344 4.396-17.66.84-35.459 1.996-51.239-8.538-1.24-.828-2.394-1.788-3.846-2.926"/>
  <path fill="#bababa" d="M1365.273 149.7c.554 8.43.963 16.521 1.182 24.617.093 3.464-.238 6.939-.328 10.41-.079 3.031-1.469 4.646-4.62 4.565-1.163-.03-2.33.115-3.494.112-16.831-.045-28.643 8.103-32.632 24.466-2.401 9.854-3.203 20.255-3.457 30.442-.52 20.819-.175 41.659-.208 62.49-.01 6.584-.757 7.004-7.285 6.644-7.313-.402-14.66-.57-21.977-.356-4.47.131-5.687-1.52-5.662-5.802.16-28.33.146-56.66.103-84.99-.034-22.449-.152-44.897-.336-67.345-.026-3.159 1.378-4.016 4.236-4.013 8.945.01 17.89-.14 26.834-.195 2.763-.018 4.284 1.094 4.198 4.195-.155 5.544-.044 11.095-.044 17.889 5.658-5.352 10.124-9.643 14.664-13.856 7.05-6.54 15.777-9.14 25.027-10.354 1.14-.15 2.382.477 3.799 1.08"/>
  <path fill="#b8b8b7" d="m1227.496 510.997-.001-122.173c5.494 0 10.826-.136 16.135.158.732.041 1.722 2.153 1.94 3.419.554 3.221.74 6.506 1.073 9.777 5.103-3.582 9.649-7.657 14.911-10.31 19.41-9.785 46.831-4.143 57.956 17.59 10.44 20.391 11.791 51.508-6.226 71.724-5.696 6.392-12.626 10.148-20.78 11.965-14.952 3.33-28.774 1.419-40.766-8.921-1.298-1.12-2.882-1.907-5.25-3.442-.318 3.162-.713 5.22-.703 7.275.073 14.653.116 29.307.423 43.955.095 4.526-1.314 6.168-6.047 5.971-12.666-.527-12.68-.336-12.7-12.999-.006-4.496.023-8.992.035-13.989m57.711-33.946c10.424-2.693 17.01-9.577 20.494-19.443 4.27-12.094 4.156-24.083-1.259-35.988-5.18-11.388-13.709-17.243-26.224-17.174-12.84.07-22.451 5.635-28.12 17.25-5.116 10.485-4.416 21.178-1.869 32.426 3.457 15.263 20.718 27.488 36.978 22.93"/>
  <path fill="#b8b8b7" d="M1343.383 433.999c.056-14.276.18-28.053.106-41.828-.016-2.983 1.269-3.768 3.902-3.717 4.328.083 8.66.022 14.12.022l1.397 14.598c2.894-2.6 5.071-4.906 7.584-6.756 14.208-10.464 29.603-11.265 45.524-4.804 14.408 5.846 20.655 18.191 24.543 32.228 4.09 14.763 3.37 29.315-2.381 43.446-13.003 31.944-48.637 33.086-68.484 19.043-2.044-1.446-3.667-3.488-6.558-6.293-.344 3.54-.717 5.565-.71 7.59.05 14.965.108 29.93.324 44.894.058 4.004-1.221 5.696-5.505 5.507-16.644-.73-13.718 1.216-13.782-14.02-.126-29.803-.066-59.607-.08-89.91m81.11 2.152c-.53-2.942-.813-5.954-1.63-8.813-3.681-12.893-13.723-21.898-25.436-23.028-12.861-1.24-25.416 5.733-31.216 17.34-6.954 13.915-4.179 34.922 5.915 46.841 9.499 11.217 30.128 13.119 41.708 1.606 9.354-9.3 11.077-20.784 10.659-33.946"/>
  <path fill="#b8b8b7" d="M1527.251 447.771c12.374 18.34 3.043 40.4-17.944 44.998-14.922 3.268-29.694 3.048-42.687-6.082-7.02-4.934-12.127-11.808-12.769-21.05-.18-2.587.28-4.193 3.294-4.274 2.478-.066 4.946-.648 7.421-.663 4.564-.028 7.932 1.1 9.839 6.32 1.225 3.355 4.667 6.65 7.954 8.342 6.31 3.25 13.411 3.748 20.44 2.25 5.996-1.278 9.967-5.367 10.657-10.53.743-5.563-1.47-9.87-7.83-12.433-6.741-2.717-13.935-4.285-20.808-6.702-5.945-2.09-12.117-3.99-17.495-7.153-16.351-9.62-16.62-35.174 1.26-46.709 15.491-9.993 39.341-9.051 53.14 3.204 5.928 5.266 8.312 13.326 9.356 21.304.098.75-2.083 2.495-3.3 2.593-3.802.304-7.705.405-11.451-.173-1.668-.257-3.723-2.018-4.464-3.623-5.46-11.81-19.235-16.712-30.882-10.647-4.05 2.11-6.876 5.232-7.07 10.116-.201 5.046 2.627 8.385 6.86 10.032 6.798 2.646 13.842 4.67 20.81 6.868 9.371 2.955 18.924 5.535 25.67 14.012"/>
  <path fill="#c0bfbe" d="M1209.683 486.702c1.233 3.869.019 5.492-3.666 5.229a35 35 0 0 0-3.497-.048c-5.482.162-8.614-1.794-10.11-7.74-1.897-7.542-5.07-14.807-8.23-21.955-.787-1.78-3.614-3.728-5.539-3.765-15.823-.301-31.655-.118-47.483-.208-3.612-.02-4.89 2.16-5.866 5.025-2.684 7.878-5.557 15.695-8.07 23.627-1.1 3.47-2.983 4.787-6.565 4.487-3.262-.273-6.565-.058-10.666-.058.643-2.415.94-3.982 1.47-5.464 10.556-29.478 21.147-58.943 31.71-88.418 4.157-11.598 8.336-23.189 12.332-34.843.894-2.607 2.177-3.648 4.97-3.775 13.652-.623 13.754-.735 18.278 12.161 9.478 27.02 18.776 54.104 28.268 81.12 4.028 11.463 8.357 22.821 12.664 34.625m-67.88-66.658-7.918 22.806h42.691l-20.74-60.226-1.554-.056c-4.076 12.244-8.152 24.488-12.479 37.476"/>
  <path fill="#5b5b5c" d="M655.892 239.253c.69-6.708 1.97-13.498 2.722-20.345 2.587-23.558-.818-45.872-17.13-64.095-10.31-11.516-23.402-18.897-39.671-18.94-9.307-.026-18.613-.533-27.921-.666-2.29-.033-4.589.55-7.291.894-1.24-2.788.406-3.65 2.734-3.582 14.11.411 28.417-.42 42.28 1.671 20.61 3.11 34.845 16.198 43.016 34.945 9.606 22.04 9.724 44.905 2.754 67.836-.234.77-.757 1.451-1.493 2.282"/>
</svg>